<svg xmlns="http://www.w3.org/2000/svg" xmlns:xlink="http://www.w3.org/1999/xlink" width="500" zoomAndPan="magnify" viewBox="0 0 375 374.999991" height="500" preserveAspectRatio="xMidYMid meet" version="1.0"><defs><g/><clipPath id="675d8e3a98"><path d="M 85 118 L 301 118 L 301 297.324219 L 85 297.324219 Z M 85 118 " clip-rule="nonzero"/></clipPath><clipPath id="1cd9022fa3"><path d="M 58 10.074219 L 214 10.074219 L 214 199 L 58 199 Z M 58 10.074219 " clip-rule="nonzero"/></clipPath></defs><g clip-path="url(#675d8e3a98)"><path fill="#28a745" d="M 160.902344 240.886719 C 171.199219 239.53125 181 230.34375 181.183594 230.171875 C 181.164062 230.242188 181.507812 230.898438 190.765625 237.226562 C 201.886719 244.832031 211.984375 233.480469 211.984375 233.480469 C 227.125 242.894531 237.523438 238.441406 237.523438 238.441406 C 228.3125 244.417969 215.210938 240.46875 215.210938 240.46875 C 195.148438 251.765625 181.582031 238.246094 181.582031 238.246094 C 173.15625 242.261719 160.902344 240.886719 160.902344 240.886719 Z M 85.910156 231.996094 C 92.3125 245.984375 101.511719 258.429688 112.78125 268.613281 C 145.144531 263.429688 157.648438 248.707031 157.648438 248.707031 C 157.648438 248.707031 167.023438 265.003906 189.191406 264.851562 C 211.351562 264.695312 216.242188 248.707031 216.242188 248.707031 C 216.242188 248.707031 224.140625 259.039062 244.601562 264.054688 C 257.746094 267.28125 273.15625 259.113281 277.65625 252.890625 L 277.664062 252.882812 C 269.800781 250.949219 264.277344 248.898438 264.277344 248.898438 C 248.5 258.378906 231.910156 251.484375 231.910156 251.484375 C 248.550781 254.472656 262.382812 233.71875 262.382812 233.71875 C 262.382812 233.71875 268.394531 241.371094 281.730469 247.132812 C 293.445312 229.40625 300.273438 208.15625 300.273438 185.316406 C 300.273438 160.097656 291.953125 136.816406 277.914062 118.074219 C 275.992188 119.433594 273.765625 121.253906 270.953125 124.285156 C 247.972656 149.074219 215.132812 173.511719 189.503906 189.53125 C 154.449219 211.441406 117.671875 225.652344 85.910156 231.996094 Z M 115.1875 270.726562 C 134.792969 287.460938 160.226562 297.566406 188.023438 297.566406 C 212.355469 297.566406 234.882812 289.820312 253.269531 276.664062 C 233.664062 277.136719 219.960938 265.980469 219.960938 265.980469 C 189.246094 288.011719 157.648438 265.003906 157.648438 265.003906 C 135.792969 271.105469 122.421875 271.445312 115.1875 270.726562 " fill-opacity="1" fill-rule="nonzero"/></g><path fill="#2f5738" d="M 189.503906 189.53125 C 215.132812 173.511719 247.972656 149.074219 270.953125 124.285156 C 273.765625 121.253906 275.992188 119.433594 277.914062 118.074219 C 278.445312 118.789062 278.972656 119.515625 279.492188 120.242188 C 265.835938 141.273438 239.398438 177.242188 201.976562 206.8125 C 168.785156 233.035156 134.601562 251.839844 105.535156 261.449219 C 97.535156 252.78125 90.878906 242.851562 85.910156 231.996094 C 117.671875 225.652344 154.449219 211.441406 189.503906 189.53125 " fill-opacity="1" fill-rule="nonzero"/><path fill="#28a745" d="M 266.808594 105.363281 C 254.847656 118.417969 232.578125 140.082031 201.289062 159.511719 C 174.625 176.0625 146.796875 188.515625 122.546875 195.152344 C 117.433594 196.550781 112.480469 197.691406 107.730469 198.554688 C 100.5625 199.863281 93.863281 200.542969 87.777344 200.542969 C 83.644531 200.542969 79.925781 200.226562 76.671875 199.617188 C 76.078125 194.933594 75.769531 190.160156 75.769531 185.316406 C 75.769531 144.527344 97.527344 108.820312 130.0625 89.167969 C 140.078125 83.113281 151.121094 78.585938 162.859375 75.898438 C 162.925781 75.882812 162.984375 75.867188 163.046875 75.855469 C 166.097656 75.160156 169.199219 74.589844 172.339844 74.152344 C 172.777344 74.089844 173.214844 74.035156 173.652344 73.976562 C 176.757812 73.578125 179.902344 73.308594 183.082031 73.171875 C 183.285156 73.164062 183.492188 73.152344 183.695312 73.148438 C 185.132812 73.09375 186.574219 73.066406 188.023438 73.066406 C 193.726562 73.066406 199.332031 73.488281 204.808594 74.3125 C 228.800781 77.910156 250.308594 89.101562 266.808594 105.363281 " fill-opacity="1" fill-rule="nonzero"/><path fill="#000000" d="M 326.945312 58.699219 C 335.660156 45.34375 340.371094 33.480469 337.558594 31.566406 C 334.753906 29.648438 325.425781 38.363281 316.167969 51.347656 L 280.601562 51.621094 L 274.902344 59.96875 L 302.789062 72.175781 C 299.199219 78.09375 295.480469 84.4375 292.226562 90.277344 L 274.046875 89.324219 L 271.320312 93.320312 L 286.875 100.292969 C 286.597656 100.84375 258.558594 138.136719 207.640625 169.75 C 138.773438 212.507812 69.441406 225.445312 52.761719 198.59375 C 41.203125 179.992188 57.964844 147.171875 92.261719 114.539062 C 37.394531 157.046875 7.132812 204.734375 22.527344 229.515625 C 40.882812 259.054688 117.300781 245.046875 192.9375 197.777344 C 254.097656 159.546875 291.890625 104.015625 292.054688 103.828125 L 298.609375 112.914062 L 301.335938 108.921875 L 299.429688 95.191406 C 303.683594 90.03125 308.234375 84.257812 312.433594 78.753906 L 318.648438 97.722656 L 324.34375 89.375 L 326.945312 58.699219 " fill-opacity="1" fill-rule="nonzero"/><g clip-path="url(#1cd9022fa3)"><path fill="#000000" d="M 186.652344 75.5625 C 190.238281 78.652344 194.59375 80.683594 199.234375 81.578125 C 204.15625 82.523438 208.753906 84.015625 213.808594 86.417969 C 213.808594 86.417969 210.746094 80.621094 204.808594 74.3125 C 195.949219 64.894531 180.691406 54.34375 159.695312 60.28125 C 160 60.085938 160.308594 59.890625 160.625 59.691406 C 159.109375 59.089844 157.351562 58.601562 155.367188 58.378906 C 155.367188 58.378906 156.414062 58.066406 158.136719 58.046875 C 161.386719 58.011719 164.589844 57.214844 167.433594 55.640625 L 167.53125 55.589844 C 165.816406 54.804688 164.875 53.496094 162.453125 53.222656 C 162.453125 53.222656 163.847656 52.808594 166.066406 52.90625 C 169.75 53.074219 173.421875 52.390625 176.746094 50.792969 C 176.929688 50.703125 177.117188 50.617188 177.304688 50.527344 C 175.445312 49.566406 173.066406 48.695312 170.222656 48.382812 C 170.222656 48.382812 172.183594 47.730469 174.925781 47.742188 C 180.371094 47.769531 185.765625 46.648438 190.820312 44.613281 C 191.03125 44.53125 191.230469 44.449219 191.421875 44.375 C 186.984375 43.046875 181.03125 41.710938 178.15625 41.390625 C 178.15625 41.390625 192.316406 39.917969 202.773438 40.957031 C 202.773438 40.957031 167.480469 16.609375 147.554688 61.011719 C 150.867188 49.921875 151.835938 30.621094 134.222656 18.613281 C 125.957031 12.980469 114.617188 10.125 114.617188 10.125 C 117.75 13.210938 133.183594 31.445312 134.554688 34.234375 C 134.4375 34.144531 130.640625 31.335938 126.1875 29.464844 C 126.257812 29.679688 126.324219 29.890625 126.390625 30.101562 C 127.597656 33.960938 134.894531 42.859375 135.726562 44.5625 C 135.726562 44.5625 132.660156 42.273438 128.777344 40.429688 C 129.6875 46.03125 132.289062 52.03125 132.519531 57.09375 C 114.757812 22.527344 75.949219 33.265625 75.949219 33.265625 C 88.710938 34.625 105.277344 39.914062 105.277344 39.914062 C 101.757812 39.578125 94.308594 39.699219 88.671875 40.179688 C 88.863281 40.304688 89.0625 40.4375 89.273438 40.578125 C 94.84375 44.285156 101.050781 46.976562 107.605469 48.324219 C 110.863281 48.992188 113.023438 50.25 113.023438 50.25 C 109.542969 49.917969 106.484375 50.367188 104.019531 51.046875 L 104.3125 51.269531 C 108.039062 54.101562 112.414062 55.933594 117.027344 56.71875 C 119.605469 57.160156 121.105469 57.972656 121.105469 57.972656 C 118.144531 57.695312 116.695312 59.023438 114.449219 59.535156 C 114.550781 59.625 114.644531 59.707031 114.742188 59.789062 C 115.550781 60.484375 116.402344 61.117188 117.292969 61.683594 C 70.875 46.675781 58.789062 80.28125 58.789062 80.28125 C 69.222656 73.023438 84.996094 66.238281 85.304688 66.105469 C 82.425781 68.15625 76.875 73.125 72.933594 77.175781 C 72.972656 77.171875 73.007812 77.164062 73.042969 77.160156 C 80.046875 76.230469 86.796875 73.976562 93.046875 70.679688 C 95.734375 69.261719 97.929688 68.84375 97.929688 68.84375 C 95.085938 70.871094 93.0625 73.214844 91.648438 75.339844 C 91.710938 75.339844 91.773438 75.335938 91.832031 75.328125 C 96.585938 75.03125 101.164062 73.542969 105.242188 71.085938 C 107.386719 69.796875 108.996094 69.414062 109.09375 69.394531 C 106.675781 71.121094 106.453125 73.078125 105.089844 74.929688 L 105.183594 74.929688 C 109.117188 74.910156 112.996094 73.945312 116.4375 72.042969 C 118.296875 71.007812 119.636719 70.695312 119.71875 70.679688 C 117.734375 72.09375 116.152344 73.660156 114.894531 75.203125 C 116.746094 75.296875 118.515625 75.417969 120.191406 75.554688 C 94.59375 81.851562 94.742188 111.535156 94.742188 111.535156 C 96.253906 108.359375 98.207031 105.613281 100.445312 103.21875 C 101.550781 97.394531 103.890625 92.835938 103.890625 92.835938 C 103.378906 95.761719 104.484375 102.488281 104.5 102.472656 C 108.1875 99.238281 109.761719 93.375 111.664062 88.863281 C 112.152344 87.695312 112.5 87.019531 112.5 87.019531 C 111.996094 89.871094 111.757812 92.414062 111.703125 94.664062 C 111.730469 94.648438 111.757812 94.632812 111.785156 94.617188 C 116.636719 91.910156 120.507812 87.738281 122.734375 82.652344 C 123.109375 81.800781 122.574219 87.1875 122.546875 89.589844 C 129.121094 83.535156 133.175781 85.238281 133.175781 85.238281 C 132.199219 86.398438 131.15625 87.703125 130.0625 89.167969 C 118.191406 105.082031 100.90625 139.285156 107.730469 198.554688 C 112.480469 197.691406 117.433594 196.550781 122.546875 195.152344 C 116.984375 171.949219 110.351562 124.214844 137.464844 88.773438 C 137.472656 89.035156 138.464844 87.179688 139.332031 86.234375 C 139.496094 86.371094 137.582031 94.402344 137.464844 97.753906 L 137.460938 97.832031 C 139.058594 96.730469 140.710938 96.59375 142.230469 94.597656 C 142.210938 94.679688 141.847656 96.027344 140.703125 97.804688 C 138.527344 101.175781 137.160156 105.003906 136.785156 108.996094 C 136.777344 109.046875 136.773438 109.09375 136.769531 109.144531 C 138.597656 108.007812 140.625 106.367188 142.40625 104.023438 C 142.382812 104.132812 141.957031 105.929688 140.730469 108.09375 C 137.792969 113.269531 135.722656 118.894531 134.757812 124.769531 C 134.753906 124.804688 134.75 124.832031 134.746094 124.863281 C 138.257812 121.648438 142.585938 117.097656 144.390625 114.726562 C 144.261719 114.996094 138.144531 128.101562 131.765625 136.699219 C 131.765625 136.699219 160.304688 124.109375 150.914062 88.105469 C 152.273438 93.515625 155.4375 98.289062 159.890625 101.644531 C 159.925781 101.667969 159.964844 101.695312 159.996094 101.722656 C 160.492188 99.738281 160.683594 94.519531 160.773438 92.050781 C 160.773438 92.050781 166.519531 98.988281 168.84375 108.882812 L 168.910156 108.945312 C 169.371094 107.03125 169.976562 101.910156 170.066406 99.5625 C 170.066406 99.5625 174.308594 108.191406 181.28125 126.878906 C 181.28125 126.878906 189.863281 94.722656 165.160156 77.261719 C 168.4375 78.960938 172.097656 79.835938 175.816406 79.808594 L 175.921875 79.808594 C 175.367188 78.527344 172.363281 75.113281 171.910156 74.46875 C 171.910156 74.46875 182.804688 79.816406 187.261719 80.128906 L 187.386719 80.136719 C 186.714844 78.613281 183.589844 73.789062 183.382812 73.492188 C 183.382812 73.492188 185.539062 74.605469 186.652344 75.5625 " fill-opacity="1" fill-rule="nonzero"/></g><g fill="#000000" fill-opacity="1"><g transform="translate(140.675841, 329.054276)"><g><path d="M 4.59375 -13.71875 L 5.734375 -17.65625 L 19.171875 -13.734375 L 20.015625 -13.484375 L 20.390625 -13.375 L 19.25 -9.4375 L 18.046875 -9.796875 C 17.785156 -9.867188 17.65625 -10 17.65625 -10.1875 C 17.644531 -10.476562 17.722656 -11.046875 17.890625 -11.890625 L 13.703125 -13.109375 L 9.625 0.875 C 9.6875 0.894531 9.78125 0.9375 9.90625 1 C 10.644531 1.375 11.039062 1.578125 11.09375 1.609375 C 11.238281 1.703125 11.273438 1.875 11.203125 2.125 L 10.890625 3.171875 L 4.875 1.421875 L 5.1875 0.375 C 5.257812 0.09375 5.445312 -0.03125 5.75 0 C 5.832031 0.0078125 6.03125 0.0234375 6.34375 0.046875 C 6.664062 0.078125 6.945312 0.101562 7.1875 0.125 L 11.25 -13.84375 L 7.046875 -15.0625 C 6.710938 -14.207031 6.484375 -13.675781 6.359375 -13.46875 C 6.253906 -13.320312 6.0625 -13.289062 5.78125 -13.375 Z M 4.59375 -13.71875 "/></g></g></g><g fill="#000000" fill-opacity="1"><g transform="translate(158.899729, 334.211069)"><g><path d="M 0.84375 0.09375 L 1.015625 -1 C 1.046875 -1.25 1.191406 -1.382812 1.453125 -1.40625 L 3 -1.5 L 5.21875 -16.09375 C 4.394531 -16.382812 3.90625 -16.554688 3.75 -16.609375 C 3.507812 -16.710938 3.410156 -16.882812 3.453125 -17.125 L 3.625 -18.265625 L 5.46875 -17.984375 L 10.40625 -17.234375 C 11.539062 -17.066406 12.53125 -16.796875 13.375 -16.421875 C 14.1875 -16.078125 14.835938 -15.632812 15.328125 -15.09375 C 15.828125 -14.53125 16.15625 -13.929688 16.3125 -13.296875 C 16.476562 -12.609375 16.5 -11.875 16.375 -11.09375 C 16.28125 -10.488281 16.085938 -9.910156 15.796875 -9.359375 C 15.515625 -8.835938 15.140625 -8.363281 14.671875 -7.9375 C 14.203125 -7.519531 13.671875 -7.207031 13.078125 -7 C 12.378906 -6.75 11.710938 -6.601562 11.078125 -6.5625 C 11.367188 -6.320312 11.597656 -6.023438 11.765625 -5.671875 L 14.921875 0.375 C 15.773438 0.644531 16.238281 0.796875 16.3125 0.828125 L 16.28125 0.828125 C 16.539062 0.929688 16.65625 1.109375 16.625 1.359375 L 16.453125 2.484375 L 15.984375 2.421875 L 14.59375 2.203125 L 13.78125 2.078125 C 13.320312 2.015625 13.023438 1.785156 12.890625 1.390625 L 9.125 -5.875 C 9.007812 -6.070312 8.875 -6.242188 8.71875 -6.390625 C 8.582031 -6.503906 8.332031 -6.585938 7.96875 -6.640625 L 6.328125 -6.890625 L 5.453125 -1.125 C 6.253906 -0.820312 6.710938 -0.644531 6.828125 -0.59375 C 6.953125 -0.539062 7.046875 -0.460938 7.109375 -0.359375 C 7.171875 -0.265625 7.195312 -0.164062 7.1875 -0.0625 L 7.015625 1.03125 L 5.171875 0.75 L 2.6875 0.375 Z M 6.59375 -8.703125 L 8.953125 -8.34375 L 8.921875 -8.359375 C 9.671875 -8.242188 10.320312 -8.226562 10.875 -8.3125 C 11.394531 -8.394531 11.894531 -8.582031 12.375 -8.875 C 12.800781 -9.144531 13.140625 -9.484375 13.390625 -9.890625 C 13.640625 -10.273438 13.804688 -10.75 13.890625 -11.3125 C 14.046875 -12.382812 13.8125 -13.257812 13.1875 -13.9375 C 12.5625 -14.582031 11.53125 -15.015625 10.09375 -15.234375 L 7.625 -15.609375 Z M 6.59375 -8.703125 "/></g></g></g><g fill="#000000" fill-opacity="1"><g transform="translate(178.768291, 337.109842)"><g><path d="M 0.640625 0 L 0.640625 -1.03125 C 0.640625 -1.25 0.753906 -1.390625 0.984375 -1.453125 L 2.03125 -1.765625 L 8.796875 -18.515625 L 11.34375 -18.515625 L 18 -1.71875 L 19.03125 -1.40625 C 19.257812 -1.34375 19.375 -1.203125 19.375 -0.984375 L 19.375 0.046875 L 14.046875 0.046875 L 14.046875 -0.984375 C 14.046875 -1.210938 14.164062 -1.351562 14.40625 -1.40625 L 15.46875 -1.71875 L 14.03125 -5.4375 L 6.03125 -5.46875 L 4.546875 -1.75 L 5.609375 -1.4375 C 5.835938 -1.382812 5.953125 -1.242188 5.953125 -1.015625 L 5.953125 0.015625 Z M 6.71875 -7.296875 L 13.328125 -7.28125 L 10.625 -14.421875 C 10.414062 -14.898438 10.222656 -15.476562 10.046875 -16.15625 C 9.835938 -15.363281 9.664062 -14.78125 9.53125 -14.40625 Z M 6.71875 -7.296875 "/></g></g></g><g fill="#000000" fill-opacity="1"><g transform="translate(201.58145, 336.960934)"><g><path d="M -2.203125 -17.28125 L -2.390625 -18.40625 L 3.6875 -19.34375 L 3.875 -18.21875 C 3.914062 -17.9375 3.765625 -17.742188 3.421875 -17.640625 C 3.316406 -17.609375 3.125 -17.535156 2.84375 -17.421875 C 2.570312 -17.316406 2.335938 -17.234375 2.140625 -17.171875 L 8.65625 -6.25 C 8.925781 -5.820312 9.226562 -5.191406 9.5625 -4.359375 C 9.644531 -5.328125 9.742188 -6.03125 9.859375 -6.46875 L 12.671875 -18.828125 C 11.828125 -18.859375 11.320312 -18.882812 11.15625 -18.90625 C 10.894531 -18.90625 10.742188 -19.046875 10.703125 -19.328125 L 10.53125 -20.40625 L 16.609375 -21.328125 L 16.78125 -20.234375 C 16.8125 -19.972656 16.710938 -19.796875 16.484375 -19.703125 L 15.25 -19.21875 L 11.078125 -1.6875 L 8.859375 -1.328125 L -0.421875 -16.765625 C -1.160156 -16.804688 -1.609375 -16.835938 -1.765625 -16.859375 C -2.023438 -16.878906 -2.171875 -17.019531 -2.203125 -17.28125 Z M -2.203125 -17.28125 "/></g></g></g><g fill="#000000" fill-opacity="1"><g transform="translate(224.108047, 333.08681)"><g><path d="M 0.859375 -0.265625 L 0.546875 -1.3125 C 0.460938 -1.570312 0.535156 -1.765625 0.765625 -1.890625 L 2.078125 -2.578125 L -2.21875 -16.734375 C -3.050781 -16.640625 -3.546875 -16.597656 -3.703125 -16.609375 C -3.953125 -16.578125 -4.117188 -16.695312 -4.203125 -16.96875 L -4.53125 -18.015625 L 8.1875 -21.875 L 9.5 -17.578125 L 8.3125 -17.21875 C 8.019531 -17.125 7.800781 -17.21875 7.65625 -17.5 C 7.65625 -17.507812 7.628906 -17.582031 7.578125 -17.71875 C 7.523438 -17.863281 7.429688 -18.085938 7.296875 -18.390625 C 7.160156 -18.691406 7.03125 -19.003906 6.90625 -19.328125 L 0.25 -17.3125 L 2.046875 -11.421875 L 8.609375 -13.40625 L 9.171875 -11.53125 L 2.609375 -9.546875 L 4.453125 -3.46875 L 11.109375 -5.484375 C 10.890625 -6.609375 10.765625 -7.21875 10.734375 -7.3125 C 10.691406 -7.582031 10.828125 -7.769531 11.140625 -7.875 L 12.328125 -8.234375 L 13.578125 -4.125 Z M 0.859375 -0.265625 "/></g></g></g><g fill="#000000" fill-opacity="1"><g transform="translate(241.05477, 327.769417)"><g><path d="M 0.8125 -0.359375 L 0.359375 -1.375 C 0.316406 -1.488281 0.304688 -1.597656 0.328125 -1.703125 C 0.359375 -1.816406 0.414062 -1.910156 0.5 -1.984375 L 1.75 -2.84375 L -4.21875 -16.375 C -5.03125 -16.175781 -5.519531 -16.066406 -5.6875 -16.046875 C -5.800781 -16.015625 -5.90625 -16.023438 -6 -16.078125 C -6.101562 -16.140625 -6.179688 -16.222656 -6.234375 -16.328125 L -6.671875 -17.328125 L -4.96875 -18.078125 L -2.6875 -19.078125 L -1 -19.828125 L -0.5625 -18.828125 C -0.507812 -18.722656 -0.492188 -18.613281 -0.515625 -18.5 C -0.546875 -18.382812 -0.609375 -18.296875 -0.703125 -18.234375 C -0.796875 -18.160156 -1.019531 -18 -1.375 -17.75 C -1.726562 -17.507812 -1.914062 -17.382812 -1.9375 -17.375 L 3.9375 -4.046875 L 10.046875 -6.75 C 9.773438 -7.519531 9.617188 -7.988281 9.578125 -8.15625 C 9.554688 -8.289062 9.578125 -8.414062 9.640625 -8.53125 C 9.703125 -8.644531 9.789062 -8.726562 9.90625 -8.78125 L 11.078125 -9.296875 L 12.703125 -5.609375 L 12.140625 -5.34375 L 11.9375 -5.265625 L 2.515625 -1.109375 Z M 0.8125 -0.359375 "/></g></g></g><g fill="#000000" fill-opacity="1"><g transform="translate(256.559386, 320.610166)"><g/></g></g><g fill="#000000" fill-opacity="1"><g transform="translate(263.655597, 316.939836)"><g><path d="M -2.265625 -4.421875 C -2.585938 -4.898438 -2.816406 -5.425781 -2.953125 -6 C -3.109375 -6.601562 -3.171875 -7.175781 -3.140625 -7.71875 C -3.097656 -8.257812 -2.96875 -8.847656 -2.75 -9.484375 C -2.550781 -10.066406 -2.285156 -10.625 -1.953125 -11.15625 C -2.703125 -11.40625 -3.378906 -11.71875 -3.984375 -12.09375 C -4.566406 -12.488281 -5.039062 -12.953125 -5.40625 -13.484375 C -5.78125 -14.035156 -6.035156 -14.597656 -6.171875 -15.171875 C -6.285156 -15.671875 -6.273438 -16.257812 -6.140625 -16.9375 C -6.046875 -17.5 -5.796875 -18.066406 -5.390625 -18.640625 C -5.003906 -19.171875 -4.492188 -19.65625 -3.859375 -20.09375 L -3.921875 -19.984375 C -3.378906 -20.347656 -2.804688 -20.609375 -2.203125 -20.765625 C -1.660156 -20.910156 -1.085938 -20.941406 -0.484375 -20.859375 C 0.0546875 -20.796875 0.550781 -20.632812 1 -20.375 C 1.457031 -20.125 1.859375 -19.789062 2.203125 -19.375 L 1.1875 -18.359375 C 1.164062 -18.347656 1.144531 -18.328125 1.125 -18.296875 C 1.113281 -18.273438 1.097656 -18.257812 1.078125 -18.25 C 1.023438 -18.207031 0.921875 -18.175781 0.765625 -18.15625 C 0.679688 -18.15625 0.566406 -18.203125 0.421875 -18.296875 C 0.273438 -18.421875 0.0625 -18.566406 -0.21875 -18.734375 C -0.414062 -18.847656 -0.671875 -18.929688 -0.984375 -18.984375 C -1.265625 -19.046875 -1.570312 -19.035156 -1.90625 -18.953125 C -2.257812 -18.878906 -2.582031 -18.742188 -2.875 -18.546875 C -3.25 -18.285156 -3.535156 -18.003906 -3.734375 -17.703125 C -3.929688 -17.410156 -4.066406 -17.078125 -4.140625 -16.703125 C -4.210938 -16.335938 -4.207031 -16 -4.125 -15.6875 C -4.03125 -15.3125 -3.878906 -14.972656 -3.671875 -14.671875 C -3.503906 -14.421875 -3.304688 -14.203125 -3.078125 -14.015625 C -2.847656 -13.828125 -2.601562 -13.664062 -2.34375 -13.53125 C -2.195312 -13.457031 -1.875 -13.332031 -1.375 -13.15625 C -1.0625 -13.039062 -0.660156 -12.9375 -0.171875 -12.84375 L 7.28125 -11.375 C 7.238281 -11.976562 7.113281 -12.617188 6.90625 -13.296875 C 6.695312 -14.015625 6.453125 -14.628906 6.171875 -15.140625 C 6.097656 -15.234375 6.070312 -15.359375 6.09375 -15.515625 C 6.125 -15.671875 6.191406 -15.78125 6.296875 -15.84375 L 7.46875 -16.640625 C 8.039062 -15.804688 8.457031 -14.910156 8.71875 -13.953125 C 9.039062 -12.910156 9.191406 -11.921875 9.171875 -10.984375 L 14.609375 -9.9375 L 12.765625 -8.671875 C 12.546875 -8.523438 12.359375 -8.429688 12.203125 -8.390625 C 12.109375 -8.359375 11.890625 -8.378906 11.546875 -8.453125 L 8.953125 -8.9375 C 8.679688 -7.769531 8.265625 -6.734375 7.703125 -5.828125 C 7.109375 -4.878906 6.269531 -4.035156 5.1875 -3.296875 C 4.601562 -2.898438 3.984375 -2.613281 3.328125 -2.4375 C 2.640625 -2.238281 1.957031 -2.175781 1.28125 -2.25 C 0.625 -2.3125 -0.015625 -2.519531 -0.640625 -2.875 C -1.253906 -3.21875 -1.796875 -3.734375 -2.265625 -4.421875 Z M -0.46875 -5.8125 L -0.46875 -5.84375 C -0.164062 -5.394531 0.195312 -5.054688 0.625 -4.828125 C 1.03125 -4.597656 1.453125 -4.445312 1.890625 -4.375 C 2.296875 -4.3125 2.753906 -4.34375 3.265625 -4.46875 C 3.691406 -4.582031 4.09375 -4.769531 4.46875 -5.03125 C 5.269531 -5.570312 5.882812 -6.207031 6.3125 -6.9375 C 6.738281 -7.695312 7.03125 -8.460938 7.1875 -9.234375 L -0.4375 -10.71875 C -0.90625 -9.820312 -1.144531 -8.945312 -1.15625 -8.09375 C -1.164062 -7.257812 -0.9375 -6.5 -0.46875 -5.8125 Z M -0.46875 -5.8125 "/></g></g></g><g fill="#000000" fill-opacity="1"><g transform="translate(280.357005, 305.021433)"><g/></g></g><g fill="#000000" fill-opacity="1"><g transform="translate(286.531222, 300.029478)"><g><path d="M -9.859375 -10.59375 L -12.765625 -13.484375 L -2.890625 -23.40625 L -2.28125 -24.03125 L -1.984375 -24.3125 L 0.921875 -21.421875 L 0.03125 -20.53125 C -0.164062 -20.332031 -0.34375 -20.28125 -0.5 -20.375 C -0.757812 -20.507812 -1.21875 -20.847656 -1.875 -21.390625 L -4.953125 -18.3125 L 5.375 -8.046875 C 5.425781 -8.085938 5.507812 -8.148438 5.625 -8.234375 C 6.300781 -8.691406 6.660156 -8.9375 6.703125 -8.96875 C 6.867188 -9.050781 7.039062 -9 7.21875 -8.8125 L 8 -8.046875 L 3.578125 -3.609375 L 2.796875 -4.375 C 2.585938 -4.582031 2.570312 -4.804688 2.75 -5.046875 C 2.789062 -5.109375 2.898438 -5.273438 3.078125 -5.546875 C 3.253906 -5.816406 3.410156 -6.050781 3.546875 -6.25 L -6.765625 -16.515625 L -9.84375 -13.40625 C -9.257812 -12.6875 -8.910156 -12.226562 -8.796875 -12.03125 C -8.703125 -11.863281 -8.757812 -11.675781 -8.96875 -11.46875 Z M -9.859375 -10.59375 "/></g></g></g><g fill="#000000" fill-opacity="1"><g transform="translate(299.874315, 286.498161)"><g><path d="M -3.59375 -4.21875 C -4.800781 -4.5625 -5.957031 -5.144531 -7.0625 -5.96875 C -8.175781 -6.800781 -9.070312 -7.742188 -9.75 -8.796875 C -10.425781 -9.847656 -10.859375 -10.953125 -11.046875 -12.109375 C -11.234375 -13.265625 -11.175781 -14.429688 -10.875 -15.609375 C -10.570312 -16.816406 -10.019531 -17.957031 -9.21875 -19.03125 C -8.425781 -20.101562 -7.492188 -20.953125 -6.421875 -21.578125 C -5.347656 -22.222656 -4.253906 -22.613281 -3.140625 -22.75 C -1.984375 -22.894531 -0.804688 -22.796875 0.390625 -22.453125 C 1.566406 -22.117188 2.726562 -21.523438 3.875 -20.671875 L 3.875 -20.640625 C 5 -19.796875 5.894531 -18.863281 6.5625 -17.84375 C 7.226562 -16.789062 7.65625 -15.691406 7.84375 -14.546875 C 8.039062 -13.410156 7.984375 -12.253906 7.671875 -11.078125 C 7.359375 -9.847656 6.804688 -8.703125 6.015625 -7.640625 C 5.234375 -6.585938 4.300781 -5.742188 3.21875 -5.109375 C 2.15625 -4.460938 1.0625 -4.070312 -0.0625 -3.9375 C -1.226562 -3.78125 -2.40625 -3.875 -3.59375 -4.21875 Z M -5.53125 -8.015625 C -4.625 -7.335938 -3.710938 -6.851562 -2.796875 -6.5625 C -1.921875 -6.269531 -1.050781 -6.175781 -0.1875 -6.28125 C 0.675781 -6.351562 1.484375 -6.613281 2.234375 -7.0625 C 3.003906 -7.539062 3.675781 -8.164062 4.25 -8.9375 C 4.832031 -9.71875 5.242188 -10.546875 5.484375 -11.421875 C 5.691406 -12.265625 5.710938 -13.113281 5.546875 -13.96875 C 5.398438 -14.78125 5.054688 -15.582031 4.515625 -16.375 C 3.972656 -17.164062 3.25 -17.898438 2.34375 -18.578125 L 2.328125 -18.5625 C 1.398438 -19.25 0.476562 -19.738281 -0.4375 -20.03125 C -1.394531 -20.332031 -2.265625 -20.445312 -3.046875 -20.375 C -3.890625 -20.289062 -4.679688 -20.019531 -5.421875 -19.5625 C -6.160156 -19.101562 -6.835938 -18.460938 -7.453125 -17.640625 C -8.046875 -16.847656 -8.453125 -16.035156 -8.671875 -15.203125 C -8.898438 -14.359375 -8.9375 -13.519531 -8.78125 -12.6875 C -8.613281 -11.832031 -8.257812 -11.007812 -7.71875 -10.21875 C -7.1875 -9.4375 -6.457031 -8.703125 -5.53125 -8.015625 Z M -5.53125 -8.015625 "/></g></g></g><g fill="#000000" fill-opacity="1"><g transform="translate(313.034104, 268.479385)"><g><path d="M -15.21875 -8.578125 L -16.1875 -9.078125 L -13.140625 -14.8125 L -12.171875 -14.3125 C -11.929688 -14.175781 -11.847656 -13.976562 -11.921875 -13.71875 C -12.023438 -13.375 -12.210938 -12.828125 -12.484375 -12.078125 L -4.203125 -7.671875 C -2.773438 -6.910156 -1.441406 -6.691406 -0.203125 -7.015625 C 1.078125 -7.335938 2.070312 -8.171875 2.78125 -9.515625 C 3.5 -10.859375 3.628906 -12.148438 3.171875 -13.390625 C 2.734375 -14.597656 1.8125 -15.570312 0.40625 -16.3125 L -7.890625 -20.734375 C -8.398438 -20.035156 -8.75 -19.578125 -8.9375 -19.359375 C -9.125 -19.128906 -9.335938 -19.082031 -9.578125 -19.21875 L -10.546875 -19.71875 L -9.546875 -21.59375 L -8.375 -23.796875 L -7.5 -25.4375 L -6.515625 -24.921875 C -6.273438 -24.796875 -6.195312 -24.597656 -6.28125 -24.328125 L -6.71875 -22.890625 L 1.59375 -18.46875 C 3.457031 -17.476562 4.71875 -16.070312 5.375 -14.25 C 6.019531 -12.382812 5.8125 -10.453125 4.75 -8.453125 C 3.6875 -6.460938 2.207031 -5.210938 0.3125 -4.703125 C -1.570312 -4.191406 -3.453125 -4.429688 -5.328125 -5.421875 L -13.640625 -9.84375 C -14.160156 -9.195312 -14.476562 -8.8125 -14.59375 -8.6875 C -14.757812 -8.476562 -14.96875 -8.441406 -15.21875 -8.578125 Z M -15.21875 -8.578125 "/></g></g></g><g fill="#000000" fill-opacity="1"><g transform="translate(323.161407, 248.823498)"><g><path d="M 0.25 -0.828125 L -0.796875 -1.203125 C -1.023438 -1.285156 -1.125 -1.453125 -1.09375 -1.703125 L -0.890625 -3.234375 L -14.796875 -8.203125 C -15.234375 -7.453125 -15.492188 -7.003906 -15.578125 -6.859375 C -15.722656 -6.648438 -15.914062 -6.59375 -16.15625 -6.6875 L -17.234375 -7.0625 L -16.59375 -8.8125 L -14.921875 -13.515625 C -14.535156 -14.597656 -14.078125 -15.519531 -13.546875 -16.28125 C -13.046875 -17.007812 -12.484375 -17.5625 -11.859375 -17.9375 C -11.234375 -18.320312 -10.585938 -18.523438 -9.921875 -18.546875 C -9.222656 -18.578125 -8.5 -18.460938 -7.75 -18.203125 C -7.164062 -17.992188 -6.632812 -17.691406 -6.15625 -17.296875 C -5.695312 -16.921875 -5.304688 -16.460938 -4.984375 -15.921875 C -4.660156 -15.390625 -4.453125 -14.8125 -4.359375 -14.1875 C -4.242188 -13.445312 -4.226562 -12.757812 -4.3125 -12.125 C -4.03125 -12.375 -3.695312 -12.546875 -3.3125 -12.640625 L 3.234375 -14.578125 C 3.660156 -15.359375 3.898438 -15.785156 3.953125 -15.859375 L 3.9375 -15.84375 C 4.09375 -16.070312 4.285156 -16.144531 4.515625 -16.0625 L 5.59375 -15.671875 L 5.4375 -15.234375 L 4.96875 -13.90625 L 4.6875 -13.125 C 4.53125 -12.695312 4.25 -12.453125 3.84375 -12.390625 L -4.015625 -10.078125 C -4.222656 -10.003906 -4.414062 -9.90625 -4.59375 -9.78125 C -4.738281 -9.664062 -4.875 -9.4375 -5 -9.09375 L -5.546875 -7.53125 L -0.046875 -5.5625 C 0.398438 -6.300781 0.660156 -6.722656 0.734375 -6.828125 C 0.804688 -6.929688 0.894531 -7.003906 1 -7.046875 C 1.113281 -7.097656 1.21875 -7.109375 1.3125 -7.078125 L 2.359375 -6.703125 L 1.734375 -4.9375 L 0.890625 -2.578125 Z M -7.28125 -8.140625 L -6.484375 -10.375 L -6.484375 -10.34375 C -6.234375 -11.0625 -6.09375 -11.707031 -6.0625 -12.28125 C -6.039062 -12.800781 -6.128906 -13.320312 -6.328125 -13.84375 C -6.523438 -14.3125 -6.789062 -14.707031 -7.125 -15.03125 C -7.46875 -15.351562 -7.910156 -15.609375 -8.453125 -15.796875 C -9.472656 -16.160156 -10.367188 -16.097656 -11.140625 -15.609375 C -11.898438 -15.128906 -12.523438 -14.207031 -13.015625 -12.84375 L -13.859375 -10.5 Z M -7.28125 -8.140625 "/></g></g></g><g fill="#000000" fill-opacity="1"><g transform="translate(329.575812, 229.992678)"><g><path d="M -0.546875 -1.0625 L -5.109375 -2.078125 L -4.84375 -3.3125 C -4.769531 -3.601562 -4.582031 -3.738281 -4.28125 -3.71875 C -4.132812 -3.726562 -3.710938 -3.679688 -3.015625 -3.578125 L -1.90625 -3.390625 C -1.125 -4.597656 -0.648438 -5.578125 -0.484375 -6.328125 C -0.328125 -7.035156 -0.273438 -7.679688 -0.328125 -8.265625 C -0.367188 -8.765625 -0.515625 -9.203125 -0.765625 -9.578125 C -1.203125 -10.335938 -1.925781 -10.832031 -2.9375 -11.0625 C -3.90625 -11.28125 -4.742188 -10.988281 -5.453125 -10.1875 C -5.828125 -9.8125 -6.132812 -9.410156 -6.375 -8.984375 C -7.332031 -7.328125 -7.925781 -6.34375 -8.15625 -6.03125 C -8.46875 -5.59375 -8.875 -5.195312 -9.375 -4.84375 C -10.375 -4.125 -11.601562 -3.925781 -13.0625 -4.25 C -14.394531 -4.550781 -15.429688 -5.289062 -16.171875 -6.46875 C -16.960938 -7.726562 -17.171875 -9.191406 -16.796875 -10.859375 C -16.410156 -12.597656 -15.691406 -14.210938 -14.640625 -15.703125 L -10.46875 -14.765625 L -10.75 -13.546875 C -10.8125 -13.242188 -10.988281 -13.101562 -11.28125 -13.125 C -11.289062 -13.125 -11.378906 -13.132812 -11.546875 -13.15625 C -11.710938 -13.1875 -11.984375 -13.226562 -12.359375 -13.28125 C -12.734375 -13.332031 -13.140625 -13.390625 -13.578125 -13.453125 C -14.148438 -12.378906 -14.535156 -11.421875 -14.734375 -10.578125 C -14.972656 -9.484375 -14.882812 -8.578125 -14.46875 -7.859375 C -14.082031 -7.171875 -13.476562 -6.734375 -12.65625 -6.546875 C -11.757812 -6.347656 -10.960938 -6.644531 -10.265625 -7.4375 C -9.921875 -7.8125 -9.597656 -8.242188 -9.296875 -8.734375 C -8.484375 -10.078125 -7.867188 -11.046875 -7.453125 -11.640625 L -7.453125 -11.59375 C -6.234375 -13.238281 -4.671875 -13.847656 -2.765625 -13.421875 C -1.109375 -13.046875 0.117188 -12.21875 0.921875 -10.9375 C 1.785156 -9.601562 2.003906 -7.984375 1.578125 -6.078125 C 1.398438 -5.285156 1.132812 -4.472656 0.78125 -3.640625 C 0.539062 -3.066406 0.234375 -2.425781 -0.140625 -1.71875 Z M -0.546875 -1.0625 "/></g></g></g></svg>